<?xml version="1.0" encoding="utf-8"?>
<!-- Generator: Adobe Illustrator 26.3.1, SVG Export Plug-In . SVG Version: 6.00 Build 0)  -->
<svg version="1.1" id="Layer_1" xmlns="http://www.w3.org/2000/svg" xmlns:xlink="http://www.w3.org/1999/xlink" x="0px" y="0px"
	 viewBox="0 0 24 24" style="enable-background:new 0 0 24 24;" xml:space="preserve">
<style type="text/css">
	.st0{fill:#FFFFFF;}
	.st1{fill:#E23237;}
</style>
<path class="st0" d="M1.5,4.4L12,0.5l10.6,3.8c0,0-1.5,14.2-1.6,14.3c-0.1,0-8.9,4.9-8.9,4.9l-9.3-5l-1.6-14L1.5,4.4z"/>
<path class="st1" d="M12,0L0.7,4l1.8,14.8L12,24l9.6-5.3l1.8-14.8L12,0z M11.9,1.3l10.3,3.5L20.5,18l-8.6,4.8l-8.5-4.7L1.9,4.8
	L11.9,1.3z M11.9,2L5,17.6l2.6,0L9,14h6.3l1.5,3.5l2.5,0L11.9,2z M12,7l2.4,4.9H9.9L12,7z"/>
<path class="st0" d="M30.3,2.6"/>
</svg>
