<?xml version="1.0" encoding="utf-8"?>
<!-- Generator: Adobe Illustrator 26.3.1, SVG Export Plug-In . SVG Version: 6.00 Build 0)  -->
<svg version="1.1" id="Layer_1" xmlns="http://www.w3.org/2000/svg" xmlns:xlink="http://www.w3.org/1999/xlink" x="0px" y="0px"
	 viewBox="0 0 24 24" style="enable-background:new 0 0 24 24;" xml:space="preserve">
<style type="text/css">
	.st0{fill:#FFFFFF;}
	.st1{fill:#FF0090;}
	.st2{fill:url(#SVGID_1_);}
	.st3{fill:url(#SVGID_00000141445096361696466700000007489977253461498759_);}
	.st4{fill:url(#SVGID_00000059997432374831604710000011024223967173470099_);}
	.st5{fill:url(#SVGID_00000088819067820945988640000002099297161562323881_);}
</style>
<rect x="13" y="4.5" class="st0" width="3" height="2.2"/>
<g>
	<path class="st1" d="M1.7,15.1c-1.2-6.4,2-12.6,9.3-13.5c-1-1.1-2.4-1.1-3-1c-1.1,0.4-1.1,1.1-2.4,2C4.4,3.5,3.8,2.9,2.9,3.6
		C1.9,4.4,2.6,6.1,2.2,6.4C1.8,7.1,0.6,7.7,0.4,8.5c-0.2,1.1,0.5,1.8,0.5,2.8c0.1,0.8-0.8,1.2-0.6,1.8c0.4,1,1.1,1.6,1.4,1.9
		C1.7,15.1,1.8,15.2,1.7,15.1L1.7,15.1z"/>
	
		<radialGradient id="SVGID_1_" cx="-942.5582" cy="549.5948" r="8.283091e-02" gradientTransform="matrix(214.6333 0 0 -153.537 202321.125 84390.1641)" gradientUnits="userSpaceOnUse">
		<stop  offset="0" style="stop-color:#F80090"/>
		<stop  offset="1" style="stop-color:#4D008E"/>
	</radialGradient>
	<path class="st2" d="M14.8,6.2c-0.3,0-0.5-0.2-0.5-0.5s0.2-0.5,0.5-0.5c0.3,0,0.5,0.2,0.5,0.5S15.1,6.2,14.8,6.2L14.8,6.2z M2,15.8
		c-1.2-5.6,2.4-10.3,9.4-8c4.1,2.4,9.2,2.2,9.5,0.7c0.6-1.9-2.6-5.7-7.4-6.7C4.1,0-1,10.2,2,15.8L2,15.8z"/>
	
		<radialGradient id="SVGID_00000136382500443418049510000004430519820909934015_" cx="-943.0406" cy="550.4088" r="7.532494e-02" gradientTransform="matrix(239.2321 0 0 -180.9694 225622.4531 99614.5547)" gradientUnits="userSpaceOnUse">
		<stop  offset="0" style="stop-color:#57008E"/>
		<stop  offset="0.2917" style="stop-color:#5C008E"/>
		<stop  offset="1" style="stop-color:#F80090"/>
	</radialGradient>
	<path style="fill:url(#SVGID_00000136382500443418049510000004430519820909934015_);" d="M17.5,16.4c1.4,0.2,2.7-0.2,4-1.2
		c-1.9,2.1-4.2,3.1-6.9,3.4c1.3,1.1,2.5,1.6,3.7,1.4c-3.3,0.9-6-0.1-9.3-3.4c-0.2,0.9,0.8,2.3,1.7,3.2C5,17.3,4.5,9.7,11.4,7.9
		c-7.1-3.4-11.2,3.2-9.2,8.7C4.2,20.7,9.3,24,15,23.3c2.7-0.3,6.8-2.2,8.5-6.7c-1.2,1.1-3.3,2-4.2,2.1c3.2-1.6,4.9-4.3,4.4-8
		c-0.7,1.6-1.5,2.8-2.6,3.6c2.3-3.6,1.9-5.5,0.2-7.5C22.5,10,20.9,13.8,17.5,16.4L17.5,16.4z"/>
	
		<linearGradient id="SVGID_00000141433082140861906470000008631831521086595976_" gradientUnits="userSpaceOnUse" x1="-935.5284" y1="546.8205" x2="-935.4705" y2="546.7427" gradientTransform="matrix(75.1919 0 0 -59.9288 70354.2734 32786.9766)">
		<stop  offset="0" style="stop-color:#F70090"/>
		<stop  offset="0.6697" style="stop-color:#E50090"/>
		<stop  offset="0.8271" style="stop-color:#D6008F;stop-opacity:0.2"/>
		<stop  offset="1" style="stop-color:#C10090;stop-opacity:0"/>
	</linearGradient>
	<path style="fill:url(#SVGID_00000141433082140861906470000008631831521086595976_);" d="M15.8,20.3c-0.2,0,0.5,0.3-1-0.1
		c-1.5-0.4-3.1-0.8-5.9-3.6c-0.2,0.9,0.8,2.3,1.7,3.2c2.6,1.8,0.8,1,4.8,2.4C15.8,21.5,15.8,20.9,15.8,20.3L15.8,20.3z"/>
	
		<linearGradient id="SVGID_00000178196563241682809450000007898773402761522612_" gradientUnits="userSpaceOnUse" x1="-930.6549" y1="536.0533" x2="-930.6739" y2="536.0732" gradientTransform="matrix(54.248 0 0 -29.6196 50495.9805 15883.1523)">
		<stop  offset="0" style="stop-color:#B2008F;stop-opacity:0.1513"/>
		<stop  offset="0.4004" style="stop-color:#F70090;stop-opacity:0.4"/>
		<stop  offset="0.649" style="stop-color:#F60090;stop-opacity:0.8917"/>
		<stop  offset="1" style="stop-color:#FF0090"/>
	</linearGradient>
	<path style="fill:url(#SVGID_00000178196563241682809450000007898773402761522612_);" d="M10.8,6c0,0,0.3-0.5,0.5-0.7
		c0.2-0.3,0.4-0.8,0.4-0.8S9,3.6,8.3,3.4c-2,0.5-2,1.4-0.9,2.7C7.6,6.3,10.8,6,10.8,6L10.8,6z"/>
</g>
</svg>
